<?xml version="1.0" encoding="utf-8"?>
<!-- Generator: Adobe Illustrator 26.5.0, SVG Export Plug-In . SVG Version: 6.00 Build 0)  -->
<svg version="1.1" id="Layer_1" xmlns="http://www.w3.org/2000/svg" xmlns:xlink="http://www.w3.org/1999/xlink" x="0px" y="0px"
	 viewBox="0 0 100 100" style="enable-background:new 0 0 100 100;" xml:space="preserve">
<style type="text/css">
	.st0{fill:#333333;}
	.st1{display:none;fill:#333333;}
	.st2{display:none;}
	.st3{display:inline;fill:#333333;}
	.st4{display:inline;}
</style>
<g>
	<path class="st0" d="M30.7,42.6c-4,0.7-6.6,4.6-5.9,8.7c0.7,4.1,4.6,6.8,8.5,6.1s6.6-4.6,5.9-8.7C38.5,44.6,34.7,41.9,30.7,42.6z"
		/>
	<path class="st0" d="M81.8,0H18.2C8.1,0,0,8.1,0,18.2v63.6C0,91.9,8.1,100,18.2,100h63.6c10.1,0,18.2-8.1,18.2-18.2V18.2
		C100,8.1,91.9,0,81.8,0z M15.4,62.6c0,0.1-0.1,0.2-0.2,0.2H9.7c-0.1,0-0.2-0.1-0.2-0.2V47.1c0-0.1,0.1-0.2,0.2-0.2h5.5
		c0.1,0,0.2,0.1,0.2,0.2V62.6z M13.2,44.1c-2.5,0.5-4.6-1.7-4.1-4.1c0.3-1.4,1.4-2.5,2.7-2.7c2.5-0.5,4.6,1.7,4.1,4.1
		C15.6,42.8,14.5,43.9,13.2,44.1z M46.2,58.9l-3.1,3.8c-0.1,0.1-0.2,0.1-0.3,0l-2.9-2.3c-0.1-0.1-0.3-0.1-0.4,0
		c-1.5,1.1-3.2,1.8-5.2,2.2c-6.9,1.3-13.6-3.3-14.8-10.3c-1.3-6.9,3.4-13.6,10.3-14.9c6.9-1.3,13.6,3.3,14.8,10.3
		c0.5,2.9,0,5.8-1.3,8.3c0,0.1,0,0.1,0,0.2c0,0.1,0.1,0.1,0.1,0.2l2.7,2.2C46.2,58.6,46.2,58.8,46.2,58.9z M55.7,62.6
		c0,0.1-0.1,0.2-0.2,0.2H50c-0.1,0-0.2-0.1-0.2-0.2V37.9c0-0.1,0.1-0.2,0.2-0.2h5.5c0.1,0,0.2,0.1,0.2,0.2V62.6z M82.4,38.1
		l-8.7,14.7c-0.1,0.1-0.1,0.3-0.1,0.5v9.3c0,0.1-0.1,0.3-0.3,0.3h-5.5c-0.1,0-0.3-0.1-0.3-0.3v-9.3c0-0.2,0-0.3-0.1-0.5l-8.7-14.7
		c-0.1-0.2,0.1-0.4,0.2-0.4h5.8c0.1,0,0.2,0.1,0.2,0.1l5.4,9.7l0,0c0,0,0,0.1,0.1,0.1l0,0c0,0,0.1-0.1,0.1-0.1l5.4-9.7
		c0-0.1,0.1-0.1,0.2-0.1h5.8C82.3,37.7,82.5,37.9,82.4,38.1z M91,62.6c0,0.1-0.1,0.2-0.2,0.2h-5.5c-0.1,0-0.2-0.1-0.2-0.2V37.9
		c0-0.1,0.1-0.2,0.2-0.2h5.5c0.1,0,0.2,0.1,0.2,0.2V62.6z"/>
</g>
<path class="st1" d="M81.8,0H18.2C8.1,0,0,8.1,0,18.2v63.6C0,91.9,8.1,100,18.2,100h63.6c10.1,0,18.2-8.1,18.2-18.2V18.2
	C100,8.1,91.9,0,81.8,0z M79.9,35.5c-0.9,0.9-2,1.7-2.9,2.6c-0.2,0.2-0.5,0.6-0.5,1c0.1,12.7-4.8,23.2-14.3,31.5
	c-4.6,4-10,6.4-16,7.6c-10.1,2.1-19.7,0.7-28.6-4.6c-0.2-0.1-0.3-0.2-0.7-0.5c3.7,0.3,7.1,0.1,10.5-0.9c3.4-1,6.5-2.5,9.4-4.8
	c-6.2-0.6-10.3-3.7-12.7-9.5c1.9,0,3.6,0,5.4,0c0-0.1,0.1-0.2,0.1-0.3c-6.6-2.1-10.4-6.4-10.9-13.3c2.1,0.6,4.1,1.1,6.1,1.6
	c0.1-0.1,0.1-0.2,0.2-0.3c-6.1-5-6.9-11.1-3.8-18.2C28.6,36.2,38,41,49.4,41.8c-0.1-1-0.2-2-0.2-2.9c-0.1-6.7,4.2-12.3,10.8-13.6
	c4.6-1,8.8,0.1,12.2,3.5c0.4,0.4,0.7,0.6,1.3,0.4c2.6-0.9,5.2-1.8,7.8-2.7c-0.9,2.9-2.9,5.2-5.6,7c0,0.1,0.1,0.2,0.1,0.2
	c2.4-0.7,4.7-1.3,7.4-2C82,33.1,81,34.3,79.9,35.5z"/>
<g class="st2">
	<path class="st3" d="M82.5,0H17.5C7.8,0,0,7.8,0,17.5v64.9C0,92.2,7.8,100,17.5,100h64.9c9.7,0,17.5-7.8,17.5-17.5V17.5
		C100,7.8,92.2,0,82.5,0z M90,79.4C90,85.3,85.3,90,79.4,90H20.6c-3.7,0-6.9-1.8-8.8-4.7c-0.4-0.6-0.7-1.2-1-1.8
		c-0.1-0.3-0.3-0.6-0.4-1c-0.3-1-0.5-2-0.5-3.1V20.6C10,14.7,14.7,10,20.6,10h58.8C85.3,10,90,14.7,90,20.6V79.4z"/>
	<g class="st4">
		<path class="st0" d="M50,34.8c8.4,0,15.2,6.8,15.2,15.2S58.4,65.2,50,65.2S34.8,58.4,34.8,50S41.6,34.8,50,34.8 M50,25.2
			c-13.7,0-24.8,11.1-24.8,24.8S36.3,74.8,50,74.8S74.8,63.7,74.8,50S63.7,25.2,50,25.2L50,25.2z"/>
	</g>
	<g class="st4">
		<path class="st0" d="M75.2,19.9c-2.9,0-5.2,2.3-5.2,5.2s2.3,5.2,5.2,5.2s5.2-2.3,5.2-5.2S78.1,19.9,75.2,19.9L75.2,19.9z"/>
	</g>
</g>
</svg>
