<?xml version="1.0" encoding="utf-8"?>
<!-- Generator: Adobe Illustrator 26.5.0, SVG Export Plug-In . SVG Version: 6.00 Build 0)  -->
<svg version="1.1" id="Layer_1" xmlns="http://www.w3.org/2000/svg" xmlns:xlink="http://www.w3.org/1999/xlink" x="0px" y="0px"
	 viewBox="0 0 1000 559.3" style="enable-background:new 0 0 1000 559.3;" xml:space="preserve">
<g>
	<g>
		<path d="M-907.8,188.4c0,0,56-44,64.8-95.1h-46.3V58.7h47.5V25.6h44.8v33.2h47.8v34.5h-48.5C-819.7,156.6-841.5,186.7-907.8,188.4
			z M-658,57.9v29.2h-32.3c0,0-8,79.2-44.8,102.1V26.4h44.8v31.5H-658z"/>
		<path d="M-776.5,192.9c-54.4,0-89,18.5-89,50.6c0,31.8,34.5,50.3,89,50.3c54.7,0,89.3-18.5,89.3-50.3
			C-687.3,211.5-721.8,192.9-776.5,192.9z M-776.4,276.4c0-16.4-16.6-33-33-33c16.4,0,33-16.6,33-33c0,16.4,16.6,33,33,33
			C-759.8,243.4-776.4,260-776.4,276.4z"/>
		<path d="M-614.4,199.8v-97.7l74.9-17.7h-75.2V49.3h119.4V117l-74.9,18v17.6c42.1-8.8,102.8-23.3,102.8-23.3
			S-493,189.7-614.4,199.8z"/>
		<path d="M-384.3,57.7v29.2h-32.3c-6.2,61.4-22.3,103.6-22.3,103.6s-22.5-54.1-22.5-164.2h44.8v31.5H-384.3z"/>
		<path d="M-550.1,251.3h167.9c0,0-68.2,61.4-212.7,35.1v-80.2h44.8V251.3z"/>
		<path d="M-210,87.1c-24.1,78.8-147.4,69.8-147.4,69.8c73.9-13.5,97.2-54.5,101.6-79.4h-85.6V42.4h135.1c0,7.5-0.6,9.6-1.4,16.3
			h22.5V25.8h44.8c0,123.5-22,145.4-22,145.4s-10-15.4-15.8-38.2h-31v-28.4h26l-2-17.4H-210z"/>
	</g>
	<path d="M-803.2,131.6L-803.2,131.6c0,0,2,48,53.3,56.5h0C-749.9,188.1-752.1,141.6-803.2,131.6z"/>
	<path d="M-422.1,212c-12,3.4-14.3,7.8-16.8,22.8c-3-15.2-4.8-19.5-16.8-22.8c12.3-3.3,13.8-6,16.8-22.8
		C-436.3,206-434.1,209.1-422.1,212z"/>
	<path d="M-134.1,252.4c0,0-9.1,56.8-207.2,43.2v-76.3l144.8-8.6h-145.1v-34.5h189.8v65.7l-144.8,10v9.1L-134.1,252.4z"/>
</g>
<g>
	<g>
		<path d="M248.5,263.7c4-0.2-14.8-33-14.8-33s-34-6.3-57.9-26.2c30.7-28.7,48.3-63.7,48.3-63.7s-8.7,0.6-18.5,1.1
			c-12.4,0.6-143.3,7.4-143.3,7.4l35.1,22.9c0,0,9-6.2,15.9-7.3c25.1-4.2,50.1-7.7,75.2-10.1C163.5,203.4,98.8,254,49,281.7
			c-5.4,3.2-8.4,5.9-8.4,7c0,0.7,1.1,1,2.5,1c6.9-0.4,63.9-27,125-78.1C178.4,219,238,264.3,248.5,263.7z"/>
		<path d="M137,117.6c23.6-1.2,63.2-11.3,63.2-14.2c0-2.9-2.9-5.3-9.4-5.3c-30.5,0.1-62.9,0.8-75.6-1.5c-2.5-0.2-4.4-0.5-5.8-0.4
			c-2.2,0.1-3.3,0.5-3.3,1.6C106.1,101,126.4,117.4,137,117.6z"/>
		<path d="M602.7,463.2c-32.3,1.7-19.3,9.4-46.5,13l-65.8,4.2c-12.7-0.1-17.4-3.1-17.8-11.4c-0.4-12.7-0.4-34.1-0.4-50.1
			c0.4-4,1.1-7,1.1-9.5c0-3.3-1.5-5.4-8-6.5c-6.9-0.7-21.8-1.4-38.5-0.5c-8.4,1.9-11.6,3.9-11.6,5.7c0,1.8,2.9,3.1,6.9,4
			c18.5,4.5,26.9,7.3,27.2,14.2l0.4,41c0,25.8,14.9,23.2,39.2,22.3l131.2-6.9c6.2-0.3,9.8-4.1,9.8-8.5
			C630,463.2,614.7,462.6,602.7,463.2z"/>
		<path d="M819.4,203.3c0,0,8.7-14.3,10.9-18.4c2.2-3.7,8.4-17.9,8.4-17.9l-158.8,8.3c0,4.4,38.9,19.8,38.9,19.8s11-4.6,20.8-6.9
			l64.6-6.3c-19.3,49-65,103.7-129.7,148.5c-8,5.5-11.3,8.6-11.3,10c0,0.7,0.4,1.1,1.4,1c2.2-0.1,6.5-1.8,12.4-4.6
			C746.8,298.3,786.7,256.2,819.4,203.3z"/>
		<path d="M928.1,418.1c-19.6,1-16,7.7-40,10.5l-86.8,4.9c-8,0.4-11.6-2.7-11.3-7.8l-0.4-34.1c-0.1-6.3,4.7-6.8,7.6-7l121.8-8.2
			c8-0.4,12.4-3.6,12.4-6.1c0-3.3-5.5-6.6-16.4-7.1c1.8-7.4,6.9-24,12.4-41.3c1.8-3,5.8-6.5,5.8-9.4c0-2.2-10-4.7-17.6-5.7
			c4.7-6.8,16.2-46.6,16.2-121l0.7-41.8c0-3.3,1.1-6.2,1.1-8.8c0-6.2-6.9-11.3-54.1-16.4c-9.4,1.9-13.4,4-13.4,5.8s3.3,3.5,9.1,4.6
			c16.7,6.4,32.3,14.3,33.4,20.8l0.3,27.1c-25-0.9-26.8-5.2-28.8-35.1c-2.3,33.3-4.1,35.2-37.3,39.3c30.2,0.5,34.4,2,36.7,27.2
			c-2.2,25.5-6.5,27.4-36.7,31.1c33.2,0.6,35,2.3,37.3,35.3c2.1-30.5,3.8-34.7,29.6-38.3l0,70.3c-7.6,0.4-5.8,2.8-13.8,4.4
			c-23.6,2.7-103.8,9.5-115.8,8.4c-0.2,0-32.8-0.9-35-0.8c-3.3,0.2-4.7,0.6-4.7,1.7c0,4.4,35.1,15.6,35.1,15.6s8.5-4,19-6
			l111.2-10.2l-2.9,45.2c0,0-12.2,3.7-18,4.5c-32.8,4.2-118.6,2-136.4,2.9c-7.6,0.4-12.7,3.9-12.7,5.4c0,1.8,2.9,2.8,5.8,3.7
			c14.9,2.9,24.3,6.4,25.1,14.3l-0.4,28.7c0,19.3,14.9,20.3,34.9,19.2l148.2-7.8c6.9-0.4,10.2-3.4,10.2-7.1
			C959.3,416.5,932.8,417.9,928.1,418.1z M880.6,208.3c2-22.9,5.6-26.8,28.2-30l0.7,57C886.3,234.6,882.6,231.2,880.6,208.3z"/>
		<path d="M328.8,92.5c-2.2,31.4-3.9,65.1-32,68.8c0-1.3,0-2.7,0-4l0.7-62.2c0-4.4,1.5-7.7,1.5-10.2c0-3.3-1.8-5.7-9.4-8.2
			c-11.6-3-24.7-6.3-41.8-7.3c-8.7,0.8-13.1,2.5-13.1,4.7c0,1.8,2.9,3.8,8.4,5.4c21.1,8,30.9,14.7,31.2,18l0.5,197.1
			c0,0,21.4-25.9,22-132.4c28.1,0.7,29.9,34.2,32,65.4c2.3-33.3,0.4-64.6,42.3-69.7C328.9,157.5,331.1,125.5,328.8,92.5z"/>
		<path d="M625.3,228.2c-2.1,30.6-3.9,34.7-30,38.3l0.2-65.3c0-3.6,1.5-6.6,1.5-9.2c0-12-49.8-15.6-51.2-15.5
			c-8.7,0.8-13.1,2.5-13.1,4.7c0,1.5,2.9,3.5,8.4,5c21.8,8.3,31.2,14.3,31.2,18.3v131.2c-63.2,27.3-138.4,42.5-157.7,43.5
			c-6.5,0.3-8.4-2.1-9.1-7.9c0.4-19.3,0.2-41.8,0.4-49.1c0.1-5.8,0.5-7,8-7.7c9.8-0.8,60.7-5.4,91.2-8.4c5.8-1,9.1-3.4,9.1-5.9
			c0-2.9-4.4-5.9-14.9-6.8c1.1-9.5,6.9-41.8,10.9-55c1.1-4.1,7.4-13.5,7.4-16.8l-152.8,8c0,5.5,29.8,20.3,36,20
			c5.1-0.3,6.9-3.6,15.6-5.9c25.8-3.9,42.9-5.5,70.5-8.8c0,21.8-1.8,60-1.8,60s-5.2,3.1-14.1,3.7c-23.6,1.6-113.8,1.8-113.8,1.8
			s6.4,9.5,10,10.4c9.1,1.7,14.3,5.5,15.4,12.7l1.5,52.6c0.4,13.1,9.1,24.6,16.7,24.2c38.1-4.2,121.7-33.3,171.5-57.7l0.4,93.3
			c3.3-0.2,22.5-51,22.5-120.6l0.2-47.7c26.2,0.9,27.9,4.8,30,35.2c2.3-33.3,4.1-35.2,37.3-39.3C629.4,263,627.6,261.3,625.3,228.2z
			"/>
	</g>
	<g>
		<path d="M226.3,281.3c45.5,1.3,68.3,28.7,68.3,55.2c0,31.5-24.2,64.5-76.9,67.3c-49.8,2.6-75.7-25.4-75.7-59.8
			c0-27,27.7-58.3,67.7-62.2c0.6-4.2-6.8-7.4-6.8-7.4s23.8,1.7,25.5,2.2C228.4,276.5,228,277.2,226.3,281.3z M156.2,345.3
			c0,26,20.5,50.6,61.8,48.4c41.3-2.2,62.1-29,62.1-54.9c0-25.7-20.8-50.6-62.1-48.4C176.7,292.5,156.2,319.6,156.2,345.3z"/>
	</g>
	<path d="M219.1,396.6c-4-48.9-7.3-51.4-65.6-51.8c58.3-6.4,61.6-9.4,65.6-58.6c4,48.9,7.3,51.4,65.6,51.8
		C226.4,344.4,223.1,347.3,219.1,396.6z"/>
</g>
</svg>
