<?xml version="1.0" encoding="utf-8"?>
<!-- Generator: Adobe Illustrator 26.5.0, SVG Export Plug-In . SVG Version: 6.00 Build 0)  -->
<svg version="1.1" id="Layer_1" xmlns="http://www.w3.org/2000/svg" xmlns:xlink="http://www.w3.org/1999/xlink" x="0px" y="0px"
	 viewBox="0 0 501.5 139.5" style="enable-background:new 0 0 501.5 139.5;" xml:space="preserve">
<g>
	<polygon points="76.8,99.3 52.6,99.3 52.6,18.1 69.8,18.1 69.8,13.9 52.6,13.9 31,13.9 16.1,13.9 16.1,18.1 31,18.1 31,99.3 
		16.1,99.3 16.1,106.7 31,106.7 52.6,106.7 64.4,106.7 97.6,106.7 97.6,99.3 97.6,73.5 	"/>
	<path d="M145.5,103.2c-0.2,0-0.3,0-0.6,0c-7.7-0.5-13.7-7.1-13.7-14.8l0-11.4l37.2,0l-0.1-2c-1.1-17.5-14.5-31.4-30.8-31.4
		c-2.4,0-4.7,0.3-7,0.9c-14.1,3.6-23.9,17.1-23.9,32.9c0,18.6,13.8,33.8,30.9,33.8c16.9,0,30.9-11.6,30.9-23.3h-6
		C162.4,94.7,154.8,103.2,145.5,103.2z M140.5,53.9c10.6,0,9.2,17.6,9.1,18.3h-18.1C131.4,71.4,129.8,53.9,140.5,53.9z"/>
	<path d="M225.8,13.9v4.2h15c0,0,0.1,86.4,0.1,87.3c0,0.2,0,0.4,0,0.6c-0.3,6-5.3,10.7-11.3,10.7c-2.4,0-4.6-0.7-6.4-2
		c5-0.6,8.8-4.9,8.8-10c0-5.6-4.5-10.1-10.1-10.1s-10.1,4.5-10.1,10.1c0,6.2,2.3,20.7,22.4,20.7c27.9,0,28.2-26.1,28.2-26.1V18.1
		h17.2v-4.2H225.8z"/>
	<path d="M309.6,42.4c-19.2,0-34.8,15.6-34.8,34.8s15.6,34.8,34.8,34.8s34.8-15.6,34.8-34.8S328.8,42.4,309.6,42.4z M318.1,95.1
		c0,4.7-3.8,8.5-8.5,8.5c-4.7,0-8.5-3.8-8.5-8.5V59.3c0-4.7,3.8-8.5,8.5-8.5c4.7,0,8.5,3.8,8.5,8.5V95.1z"/>
	<path d="M416.4,99.6V47.5l-29.3,0v7.4h12.1v37.4c-0.1,0.1-0.2,0.2-0.2,0.2c-10.1,10.1-15.3,9.2-18,6.2c-1.3-1.4-1.9-3.3-1.9-5.2
		v-46l-29,0v7.2h8.2V96c0,9.8,6.5,14.7,19.1,14.7c12.6,0,21.3-11.6,21.3-11.6s0.2-0.2,0.5-0.7v8.6l26.6,0v-7.3H416.4z"/>
	<path d="M472.7,47.5c-4.5,0-9.1,1.5-11.7,4.4v-4.4h-3.3h-18h-7.9v7.2h7.9v44.9h-7.8v7.4h10v0h30.6v-7.4H461v-34
		c0-8.9,3.4-11.7,8.5-10.6c-0.7,1.2-1.1,2.6-1.1,4c0,4.5,3.7,8.2,8.2,8.2s8.2-3.7,8.2-8.2C484.8,56.7,482.8,47.5,472.7,47.5z"/>
</g>
</svg>
